<?xml version="1.0" encoding="UTF-8"?>
<svg version="1.1" xmlns="http://www.w3.org/2000/svg" width="96" height="84">
<path d="M0 0 C0.02709444 2.08326131 0.04643873 4.16662441 0.0625 6.25 C0.07410156 7.41015625 0.08570313 8.5703125 0.09765625 9.765625 C0.01782092 12.40977128 -0.21356222 14.49826091 -1 17 C-1.99 17 -2.98 17 -4 17 C-4 16.34 -4 15.68 -4 15 C-15.09831192 23.93054291 -15.09831192 23.93054291 -22 36 C-22.31736049 40.67903283 -21.63825027 44.7217404 -18.6875 48.4375 C-14.47896948 52.45028491 -12.17328769 53.19420138 -6.29296875 53.4609375 C2.33578906 51.72636608 7.94800054 44.30434739 13.75 38.25 C15.61130431 36.30895263 17.48187032 34.37870234 19.359375 32.453125 C20.17889648 31.59879883 20.99841797 30.74447266 21.84277344 29.86425781 C24 28 24 28 27 28 C29.6188753 32.60415174 29.87105001 36.81293642 29 42 C27.47395342 45.13913003 25.39005383 47.4771654 23 50 C22.31164063 50.75410156 21.62328125 51.50820313 20.9140625 52.28515625 C13.83968063 59.71946281 6.22234701 66.2718384 -4.33203125 67.3359375 C-14.61934106 67.45139552 -21.8125031 65.72099485 -29.49609375 58.71484375 C-36.2935904 50.96393198 -36.55991511 41.84791868 -36 32 C-34.45418048 21.79079638 -24.59759899 14.32734008 -17.3359375 7.7890625 C-15.72819383 6.06920219 -15.72819383 6.06920219 -16.2890625 3.7734375 C-16.52367188 3.18820313 -16.75828125 2.60296875 -17 2 C-11.21642935 -0.01167675 -6.09781001 -0.22084624 0 0 Z " fill="#43D4E8" transform="translate(38,3)"/>
<path d="M0 0 C0.886875 0.5775 1.77375 1.155 2.6875 1.75 C8.75452956 7.65305578 11.95562627 14.83674891 12.3125 23.3125 C11.85888798 38.15569335 2.23616457 47.13193918 -7.6875 57.125 C-8.52861328 57.99898437 -9.36972656 58.87296875 -10.23632812 59.7734375 C-11.04908203 60.59328125 -11.86183594 61.413125 -12.69921875 62.2578125 C-13.42971436 63.0017627 -14.16020996 63.74571289 -14.9128418 64.51220703 C-17 66 -17 66 -19.18676758 65.85888672 C-21 65 -21 65 -22.3125 63 C-23.29244412 58.7238802 -23.30513706 55.21332291 -22 51 C-20.04484025 47.93612161 -17.6020345 45.52276105 -15 43 C-13.22768918 41.25149634 -11.45689982 39.50144939 -9.6875 37.75 C-8.84574219 36.94046875 -8.00398438 36.1309375 -7.13671875 35.296875 C-3.01754691 30.86895354 -2.5530107 27.38371553 -2.68359375 21.47265625 C-3.28672157 16.75932402 -5.69229355 14.12089124 -9.1875 11.125 C-13.11565579 9.55373768 -16.83977171 9.13243187 -21 10 C-25.2543918 12.57821934 -28.61805674 15.42268566 -32.0390625 19.01953125 C-32.94914062 19.95861328 -33.85921875 20.89769531 -34.796875 21.86523438 C-36.22179907 23.34623642 -37.64239491 24.83086558 -39.05566406 26.32299805 C-40.43469629 27.77429915 -41.83040267 29.20969938 -43.2265625 30.64453125 C-44.04721191 31.50409424 -44.86786133 32.36365723 -45.71337891 33.24926758 C-48 35 -48 35 -50.21630859 34.8972168 C-52 34 -52 34 -53.3125 32 C-54.29285468 27.72208866 -54.30103142 24.21591057 -53 20 C-51.05774659 16.92527282 -48.58591494 14.54030798 -46 12 C-45.15566406 11.08605469 -44.31132813 10.17210937 -43.44140625 9.23046875 C-31.68199132 -3.36528388 -15.87392178 -10.34772004 0 0 Z " fill="#43D4E8" transform="translate(80,16)"/>
</svg>
