<?xml version="1.0" encoding="UTF-8"?>
<svg version="1.1" xmlns="http://www.w3.org/2000/svg" width="419" height="84">
<path d="M0 0 C5.99007322 2.71117434 10.35922835 7.05795541 12.8515625 13.1484375 C14.80613989 20.46694644 15.00524056 29.58655145 11.8203125 36.60546875 C8.53919318 41.75164537 4.57177082 45.51232465 -1.29296875 47.3515625 C-4.16015625 47.6875 -4.16015625 47.6875 -7.16796875 47.7265625 C-8.15539062 47.75492188 -9.1428125 47.78328125 -10.16015625 47.8125 C-13.29296875 47.3515625 -13.29296875 47.3515625 -20.29296875 43.3515625 C-20.62296875 50.2815625 -20.95296875 57.2115625 -21.29296875 64.3515625 C-25.91296875 64.3515625 -30.53296875 64.3515625 -35.29296875 64.3515625 C-35.29296875 43.2315625 -35.29296875 22.1115625 -35.29296875 0.3515625 C-30.67296875 0.3515625 -26.05296875 0.3515625 -21.29296875 0.3515625 C-20.96296875 1.6715625 -20.63296875 2.9915625 -20.29296875 4.3515625 C-19.50921875 3.7121875 -18.72546875 3.0728125 -17.91796875 2.4140625 C-12.65704954 -1.71951688 -6.39942557 -1.80971831 0 0 Z M-19.29296875 15.3515625 C-21.5435641 19.31689716 -21.7670174 22.84810032 -21.29296875 27.3515625 C-19.26630637 31.05546271 -17.81252359 33.00519261 -14.29296875 35.3515625 C-10.9999882 35.78648446 -8.48961918 36.04450039 -5.5390625 34.3359375 C-2.83695019 32.17424765 -1.39630805 30.66158039 -0.29296875 27.3515625 C0.05234392 21.99921608 0.1827771 18.69624482 -3.29296875 14.3515625 C-5.80346716 11.75140343 -7.09039462 11.37734466 -10.73046875 10.9140625 C-14.91204206 11.42758905 -16.42035115 12.31479532 -19.29296875 15.3515625 Z " fill="#FFFFFF" transform="translate(208.29296875,18.6484375)"/>
<path d="M0 0 C0.02709444 2.08326131 0.04643873 4.16662441 0.0625 6.25 C0.07410156 7.41015625 0.08570313 8.5703125 0.09765625 9.765625 C0.01782092 12.40977128 -0.21356222 14.49826091 -1 17 C-1.99 17 -2.98 17 -4 17 C-4 16.34 -4 15.68 -4 15 C-15.09831192 23.93054291 -15.09831192 23.93054291 -22 36 C-22.31736049 40.67903283 -21.63825027 44.7217404 -18.6875 48.4375 C-14.47896948 52.45028491 -12.17328769 53.19420138 -6.29296875 53.4609375 C2.33578906 51.72636608 7.94800054 44.30434739 13.75 38.25 C15.61130431 36.30895263 17.48187032 34.37870234 19.359375 32.453125 C20.17889648 31.59879883 20.99841797 30.74447266 21.84277344 29.86425781 C24 28 24 28 27 28 C29.6188753 32.60415174 29.87105001 36.81293642 29 42 C27.47395342 45.13913003 25.39005383 47.4771654 23 50 C22.31164063 50.75410156 21.62328125 51.50820313 20.9140625 52.28515625 C13.83968063 59.71946281 6.22234701 66.2718384 -4.33203125 67.3359375 C-14.61934106 67.45139552 -21.8125031 65.72099485 -29.49609375 58.71484375 C-36.2935904 50.96393198 -36.55991511 41.84791868 -36 32 C-34.45418048 21.79079638 -24.59759899 14.32734008 -17.3359375 7.7890625 C-15.72819383 6.06920219 -15.72819383 6.06920219 -16.2890625 3.7734375 C-16.52367188 3.18820313 -16.75828125 2.60296875 -17 2 C-11.21642935 -0.01167675 -6.09781001 -0.22084624 0 0 Z " fill="#44D5E8" transform="translate(38,3)"/>
<path d="M0 0 C0.886875 0.5775 1.77375 1.155 2.6875 1.75 C8.75452956 7.65305578 11.95562627 14.83674891 12.3125 23.3125 C11.85888798 38.15569335 2.23616457 47.13193918 -7.6875 57.125 C-8.52861328 57.99898437 -9.36972656 58.87296875 -10.23632812 59.7734375 C-11.04908203 60.59328125 -11.86183594 61.413125 -12.69921875 62.2578125 C-13.42971436 63.0017627 -14.16020996 63.74571289 -14.9128418 64.51220703 C-17 66 -17 66 -19.18676758 65.85888672 C-21 65 -21 65 -22.3125 63 C-23.29244412 58.7238802 -23.30513706 55.21332291 -22 51 C-20.04484025 47.93612161 -17.6020345 45.52276105 -15 43 C-13.22768918 41.25149634 -11.45689982 39.50144939 -9.6875 37.75 C-8.84574219 36.94046875 -8.00398438 36.1309375 -7.13671875 35.296875 C-3.01754691 30.86895354 -2.5530107 27.38371553 -2.68359375 21.47265625 C-3.28672157 16.75932402 -5.69229355 14.12089124 -9.1875 11.125 C-13.11565579 9.55373768 -16.83977171 9.13243187 -21 10 C-25.2543918 12.57821934 -28.61805674 15.42268566 -32.0390625 19.01953125 C-32.94914062 19.95861328 -33.85921875 20.89769531 -34.796875 21.86523438 C-36.22179907 23.34623642 -37.64239491 24.83086558 -39.05566406 26.32299805 C-40.43469629 27.77429915 -41.83040267 29.20969938 -43.2265625 30.64453125 C-44.04721191 31.50409424 -44.86786133 32.36365723 -45.71337891 33.24926758 C-48 35 -48 35 -50.21630859 34.8972168 C-52 34 -52 34 -53.3125 32 C-54.29285468 27.72208866 -54.30103142 24.21591057 -53 20 C-51.05774659 16.92527282 -48.58591494 14.54030798 -46 12 C-45.15566406 11.08605469 -44.31132813 10.17210937 -43.44140625 9.23046875 C-31.68199132 -3.36528388 -15.87392178 -10.34772004 0 0 Z " fill="#44D5E8" transform="translate(80,16)"/>
<path d="M0 0 C3.92669434 3.25464397 5.69067626 7.14558634 7 12 C7.15839988 14.52451932 7.21554772 17.05653464 7.1953125 19.5859375 C7.1924826 20.28772125 7.18965271 20.989505 7.18673706 21.71255493 C7.17562512 23.93355028 7.15053834 26.15412845 7.125 28.375 C7.11495854 29.88931705 7.10583473 31.40364049 7.09765625 32.91796875 C7.07742461 36.61226556 7.03826118 40.30567095 7 44 C2.38 44 -2.24 44 -7 44 C-7.33 43.34 -7.66 42.68 -8 42 C-8.7425 42.495 -9.485 42.99 -10.25 43.5 C-15.65040229 46.18095981 -22.544127 46.07313951 -28.2265625 44.30859375 C-31.20692933 42.79304551 -32.99505243 41.00686275 -34.9375 38.3125 C-36.61841495 33.07200044 -36.97845451 28.31739226 -34.8125 23.1875 C-31.95627898 19.7403367 -29.26624316 17.42208105 -25 16 C-22.30151372 15.90372662 -19.63509624 15.86068914 -16.9375 15.875 C-16.20466797 15.87113281 -15.47183594 15.86726563 -14.71679688 15.86328125 C-9.25336982 15.87331509 -9.25336982 15.87331509 -7 17 C-8.0917518 13.19361457 -8.0917518 13.19361457 -11.09375 10.8125 C-14.76716472 9.78552384 -18.06979995 10.01684688 -21.8125 10.375 C-22.50537109 10.43171875 -23.19824219 10.4884375 -23.91210938 10.546875 C-25.60898446 10.68730604 -27.30465248 10.84219407 -29 11 C-32.34821429 4.03571429 -32.34821429 4.03571429 -31 0 C-20.76573795 -3.32564028 -9.94629642 -5.34338258 0 0 Z M-22 27 C-22.2502157 29.91634129 -22.2502157 29.91634129 -22 33 C-18.29873141 35.46751239 -16.37776468 35.30721156 -12 35 C-8.61968411 33.81232145 -8.06783183 33.10174775 -6 30 C-6 28.68 -6 27.36 -6 26 C-12.40621138 23.07144622 -15.86369338 23.57508467 -22 27 Z " fill="#FFFFFF" transform="translate(342,21)"/>
<path d="M0 0 C4.62 0 9.24 0 14 0 C14.03738281 2.13082031 14.07476562 4.26164062 14.11328125 6.45703125 C14.15950257 8.5223208 14.21073366 10.58742953 14.26245117 12.65258789 C14.29569001 14.08704628 14.32372535 15.52163513 14.34643555 16.95629883 C14.38000271 19.01960807 14.43231413 21.08172303 14.48828125 23.14453125 C14.51446533 24.38565674 14.54064941 25.62678223 14.56762695 26.90551758 C14.75682999 29.9526776 14.75682999 29.9526776 16.31323242 31.8972168 C19.24502446 33.81397821 21.63071506 33.48132642 25 33 C28.00549157 29.22627886 28.40349361 26.12698 28.51171875 21.38671875 C28.54716797 20.13955078 28.58261719 18.89238281 28.61914062 17.60742188 C28.64169922 16.31384766 28.66425781 15.02027344 28.6875 13.6875 C28.72166016 12.37458984 28.75582031 11.06167969 28.79101562 9.70898438 C28.87338729 6.47295481 28.93837279 3.23649108 29 0 C33.62 0 38.24 0 43 0 C43 15.18 43 30.36 43 46 C38.38 46 33.76 46 29 46 C28.67 44.68 28.34 43.36 28 42 C27.401875 42.639375 26.80375 43.27875 26.1875 43.9375 C22.21583999 47.68220801 17.92478189 47.33318821 12.73046875 47.28515625 C7.93742048 46.7845947 5.27099754 44.44630755 2.1875 40.9375 C-0.40116458 36.71388937 -0.12960649 32.61082013 -0.09765625 27.83203125 C-0.0962413 27.03721848 -0.09482635 26.2424057 -0.09336853 25.42350769 C-0.08777378 22.88646675 -0.07522228 20.34951425 -0.0625 17.8125 C-0.05748432 16.09179815 -0.05292153 14.37109492 -0.04882812 12.65039062 C-0.03780607 8.4335597 -0.02054506 4.21679484 0 0 Z " fill="#FFFFFF" transform="translate(120,19)"/>
<path d="M0 0 C1 3 1 3 0.22265625 5.04296875 C-0.35162109 6.10451172 -0.35162109 6.10451172 -0.9375 7.1875 C-1.50791016 8.26064453 -1.50791016 8.26064453 -2.08984375 9.35546875 C-2.39019531 9.89816406 -2.69054687 10.44085938 -3 11 C-3.73605469 10.7834375 -4.47210938 10.566875 -5.23046875 10.34375 C-6.69419922 9.92609375 -6.69419922 9.92609375 -8.1875 9.5 C-9.63189453 9.08234375 -9.63189453 9.08234375 -11.10546875 8.65625 C-13.85345876 8.03322392 -16.19598416 7.87697188 -19 8 C-19.33 8.99 -19.66 9.98 -20 11 C-18.83082031 11.43570313 -17.66164062 11.87140625 -16.45703125 12.3203125 C-14.90849737 12.92095594 -13.36033978 13.52257013 -11.8125 14.125 C-11.04357422 14.40859375 -10.27464844 14.6921875 -9.48242188 14.984375 C-4.13699132 17.09501711 -1.1390654 19.12732847 2 24 C3.02055204 28.46491516 2.55287967 32.66144921 0.8125 36.875 C-2.07722962 40.26295887 -4.75360928 42.58453643 -9 44 C-19.29142933 44.81635525 -27.35869402 43.76087065 -36 38 C-34.66511872 34.40608886 -33.03977277 31.24509304 -31 28 C-28.30298166 28.53940367 -26.26109801 29.35524134 -23.75 30.5625 C-19.7353498 32.35646517 -16.3539086 32.22915308 -12 32 C-12 31.01 -12 30.02 -12 29 C-13.02480469 28.61328125 -14.04960937 28.2265625 -15.10546875 27.828125 C-16.46632699 27.30255216 -17.82699407 26.77648416 -19.1875 26.25 C-19.86103516 25.99734375 -20.53457031 25.7446875 -21.22851562 25.484375 C-26.38419377 23.47240304 -30.79555018 21.40889963 -33.375 16.25 C-34.31848339 11.3438864 -34.39085848 7.31507714 -31.80078125 3.00390625 C-23.85604168 -7.0260668 -10.46614945 -5.67945315 0 0 Z " fill="#FFFFFF" transform="translate(263,22)"/>
<path d="M0 0 C0.68964844 -0.00386719 1.37929688 -0.00773438 2.08984375 -0.01171875 C7.24666707 -0.00166646 7.24666707 -0.00166646 9.5 1.125 C9.5 5.085 9.5 9.045 9.5 13.125 C6.53 13.125 3.56 13.125 0.5 13.125 C-0.16 14.445 -0.82 15.765 -1.5 17.125 C2.13 17.125 5.76 17.125 9.5 17.125 C9.5 21.085 9.5 25.045 9.5 29.125 C5.87 29.125 2.24 29.125 -1.5 29.125 C-1.5 40.345 -1.5 51.565 -1.5 63.125 C-6.12 63.125 -10.74 63.125 -15.5 63.125 C-15.5 51.905 -15.5 40.685 -15.5 29.125 C-17.15 29.125 -18.8 29.125 -20.5 29.125 C-20.5 25.165 -20.5 21.205 -20.5 17.125 C-18.85 17.125 -17.2 17.125 -15.5 17.125 C-15.48582031 16.47273438 -15.47164063 15.82046875 -15.45703125 15.1484375 C-15.10709308 8.73605705 -14.17985878 5.57657299 -9.5 1.125 C-6.46570323 -0.39214839 -3.32398333 -0.01863916 0 0 Z " fill="#FFFFFF" transform="translate(376.5,1.875)"/>
<path d="M0 0 C0.68900391 0.00064453 1.37800781 0.00128906 2.08789062 0.00195312 C7.17194475 0.04694475 7.17194475 0.04694475 8.3125 1.1875 C8.38494053 3.20714199 8.39627188 5.22917124 8.375 7.25 C8.36597656 8.35472656 8.35695313 9.45945312 8.34765625 10.59765625 C8.33605469 11.45230469 8.32445312 12.30695312 8.3125 13.1875 C5.3425 13.1875 2.3725 13.1875 -0.6875 13.1875 C-1.0175 14.5075 -1.3475 15.8275 -1.6875 17.1875 C1.6125 17.1875 4.9125 17.1875 8.3125 17.1875 C8.3125 21.1475 8.3125 25.1075 8.3125 29.1875 C5.0125 29.1875 1.7125 29.1875 -1.6875 29.1875 C-1.6875 40.4075 -1.6875 51.6275 -1.6875 63.1875 C-6.3075 63.1875 -10.9275 63.1875 -15.6875 63.1875 C-15.6875 51.9675 -15.6875 40.7475 -15.6875 29.1875 C-17.6675 29.1875 -19.6475 29.1875 -21.6875 29.1875 C-21.6875 25.2275 -21.6875 21.2675 -21.6875 17.1875 C-19.7075 17.1875 -17.7275 17.1875 -15.6875 17.1875 C-15.73390625 16.60742188 -15.7803125 16.02734375 -15.828125 15.4296875 C-16.08837738 9.7970825 -15.56039911 6.59830176 -11.6875 2.1875 C-8.05071425 -0.32830002 -4.25604729 -0.07694091 0 0 Z " fill="#FFFFFF" transform="translate(409.6875,1.8125)"/>
<path d="M0 0 C4.29 0 8.58 0 13 0 C13 3.96 13 7.92 13 12 C16.63 12 20.26 12 24 12 C24 15.96 24 19.92 24 24 C20.37 24 16.74 24 13 24 C13.33 31.26 13.66 38.52 14 46 C18.95 45.505 18.95 45.505 24 45 C24 48.96 24 52.92 24 57 C18.08385081 59.36645967 13.30237754 59.86018937 7 59 C3.77204932 57.36782193 1.63939981 55.27879961 0 52 C-0.08543895 49.89471067 -0.10714725 47.78668843 -0.09765625 45.6796875 C-0.09443359 44.42285156 -0.09121094 43.16601562 -0.08789062 41.87109375 C-0.07951172 40.55238281 -0.07113281 39.23367187 -0.0625 37.875 C-0.05748489 36.53515789 -0.05292201 35.195314 -0.04882812 33.85546875 C-0.03701086 30.57026794 -0.02053617 27.28515603 0 24 C-1.98 24 -3.96 24 -6 24 C-6 20.04 -6 16.08 -6 12 C-4.02 12 -2.04 12 0 12 C0 8.04 0 4.08 0 0 Z " fill="#FFFFFF" transform="translate(276,7)"/>
</svg>
